<mxfile host="65bd71144e">
    <diagram id="XfZcWzWgf1vLjqzbH9j9" name="PÃ¡gina-1">
        <mxGraphModel dx="949" dy="2238" grid="1" gridSize="10" guides="1" tooltips="1" connect="1" arrows="1" fold="1" page="1" pageScale="1" pageWidth="827" pageHeight="1169" math="0" shadow="0">
            <root>
                <mxCell id="0"/>
                <mxCell id="1" parent="0"/>
                <mxCell id="4" value="a" style="points=[[0,0],[0.25,0],[0.5,0],[0.75,0],[1,0],[1,0.25],[1,0.5],[1,0.75],[1,1],[0.75,1],[0.5,1],[0.25,1],[0,1],[0,0.75],[0,0.5],[0,0.25]];outlineConnect=0;gradientColor=none;html=1;whiteSpace=wrap;fontSize=12;fontStyle=0;container=1;pointerEvents=0;collapsible=0;recursiveResize=0;shape=mxgraph.aws4.group;grIcon=mxgraph.aws4.group_aws_cloud_alt;strokeColor=#FFFFFF;fillColor=none;verticalAlign=top;align=left;spacingLeft=30;fontColor=#FFFFFF;dashed=0;rounded=0;" vertex="1" parent="1">
                    <mxGeometry x="40" y="-220" width="1350" height="740" as="geometry"/>
                </mxCell>
                <mxCell id="5" value="Amazon EMR" style="outlineConnect=0;fontColor=#232F3E;gradientColor=none;strokeColor=#ffffff;fillColor=#232F3E;dashed=0;verticalLabelPosition=middle;verticalAlign=bottom;align=center;html=1;whiteSpace=wrap;fontSize=10;fontStyle=1;spacing=3;shape=mxgraph.aws4.productIcon;prIcon=mxgraph.aws4.emr;rounded=0;" vertex="1" parent="4">
                    <mxGeometry x="190" y="260" width="80" height="100" as="geometry"/>
                </mxCell>
                <mxCell id="6" value="S3 RAW DATA" style="outlineConnect=0;fontColor=#232F3E;gradientColor=none;strokeColor=#ffffff;fillColor=#232F3E;dashed=0;verticalLabelPosition=middle;verticalAlign=bottom;align=center;html=1;whiteSpace=wrap;fontSize=10;fontStyle=1;spacing=3;shape=mxgraph.aws4.productIcon;prIcon=mxgraph.aws4.s3;rounded=0;" vertex="1" parent="4">
                    <mxGeometry x="70" y="407.5" width="80" height="100" as="geometry"/>
                </mxCell>
                <mxCell id="7" value="AWS Lambda" style="outlineConnect=0;fontColor=#232F3E;gradientColor=none;strokeColor=#ffffff;fillColor=#232F3E;dashed=0;verticalLabelPosition=middle;verticalAlign=bottom;align=center;html=1;whiteSpace=wrap;fontSize=10;fontStyle=1;spacing=3;shape=mxgraph.aws4.productIcon;prIcon=mxgraph.aws4.lambda;rounded=0;" vertex="1" parent="4">
                    <mxGeometry x="80" y="260" width="80" height="100" as="geometry"/>
                </mxCell>
                <mxCell id="8" value="" style="edgeStyle=orthogonalEdgeStyle;html=1;endArrow=block;elbow=vertical;startArrow=none;endFill=1;strokeColor=#2D7600;rounded=0;fillColor=#60a917;" edge="1" parent="4" source="6" target="7">
                    <mxGeometry width="100" relative="1" as="geometry">
                        <mxPoint x="80" y="357.5" as="sourcePoint"/>
                        <mxPoint x="180" y="357.5" as="targetPoint"/>
                        <Array as="points">
                            <mxPoint x="110" y="357.5"/>
                        </Array>
                    </mxGeometry>
                </mxCell>
                <mxCell id="9" value="" style="edgeStyle=orthogonalEdgeStyle;html=1;endArrow=block;elbow=vertical;startArrow=none;endFill=1;strokeColor=#2D7600;rounded=0;fillColor=#60a917;" edge="1" parent="4" source="7" target="5">
                    <mxGeometry width="100" relative="1" as="geometry">
                        <mxPoint x="120" y="220" as="sourcePoint"/>
                        <mxPoint x="220" y="220" as="targetPoint"/>
                        <Array as="points">
                            <mxPoint x="120" y="220"/>
                            <mxPoint x="230" y="220"/>
                        </Array>
                    </mxGeometry>
                </mxCell>
                <mxCell id="10" value="S3 BRONZE" style="outlineConnect=0;fontColor=#232F3E;gradientColor=none;strokeColor=#ffffff;fillColor=#232F3E;dashed=0;verticalLabelPosition=middle;verticalAlign=bottom;align=center;html=1;whiteSpace=wrap;fontSize=10;fontStyle=1;spacing=3;shape=mxgraph.aws4.productIcon;prIcon=mxgraph.aws4.s3;rounded=0;" vertex="1" parent="4">
                    <mxGeometry x="210" y="407.5" width="80" height="100" as="geometry"/>
                </mxCell>
                <mxCell id="11" value="" style="edgeStyle=orthogonalEdgeStyle;html=1;endArrow=block;elbow=vertical;startArrow=none;endFill=1;strokeColor=#2D7600;rounded=0;fillColor=#60a917;" edge="1" parent="4" source="5" target="10">
                    <mxGeometry width="100" relative="1" as="geometry">
                        <mxPoint x="340" y="377.5" as="sourcePoint"/>
                        <mxPoint x="440" y="377.5" as="targetPoint"/>
                        <Array as="points">
                            <mxPoint x="280" y="377.5"/>
                            <mxPoint x="250" y="377.5"/>
                        </Array>
                    </mxGeometry>
                </mxCell>
                <mxCell id="12" value="Amazon EMR" style="outlineConnect=0;fontColor=#232F3E;gradientColor=none;strokeColor=#ffffff;fillColor=#232F3E;dashed=0;verticalLabelPosition=middle;verticalAlign=bottom;align=center;html=1;whiteSpace=wrap;fontSize=10;fontStyle=1;spacing=3;shape=mxgraph.aws4.productIcon;prIcon=mxgraph.aws4.emr;rounded=0;" vertex="1" parent="4">
                    <mxGeometry x="434" y="262.5" width="80" height="100" as="geometry"/>
                </mxCell>
                <mxCell id="13" value="AWS Lambda" style="outlineConnect=0;fontColor=#232F3E;gradientColor=none;strokeColor=#ffffff;fillColor=#232F3E;dashed=0;verticalLabelPosition=middle;verticalAlign=bottom;align=center;html=1;whiteSpace=wrap;fontSize=10;fontStyle=1;spacing=3;shape=mxgraph.aws4.productIcon;prIcon=mxgraph.aws4.lambda;rounded=0;" vertex="1" parent="4">
                    <mxGeometry x="324" y="262.5" width="80" height="100" as="geometry"/>
                </mxCell>
                <mxCell id="14" value="" style="edgeStyle=orthogonalEdgeStyle;html=1;endArrow=block;elbow=vertical;startArrow=none;endFill=1;strokeColor=#2D7600;rounded=0;fillColor=#60a917;" edge="1" parent="4" source="10" target="13">
                    <mxGeometry width="100" relative="1" as="geometry">
                        <mxPoint x="310" y="457.5" as="sourcePoint"/>
                        <mxPoint x="410" y="457.5" as="targetPoint"/>
                        <Array as="points">
                            <mxPoint x="400" y="457.5"/>
                        </Array>
                    </mxGeometry>
                </mxCell>
                <mxCell id="15" value="" style="edgeStyle=orthogonalEdgeStyle;html=1;endArrow=block;elbow=vertical;startArrow=none;endFill=1;strokeColor=#2D7600;rounded=0;fillColor=#60a917;" edge="1" parent="4">
                    <mxGeometry width="100" relative="1" as="geometry">
                        <mxPoint x="364" y="262.5" as="sourcePoint"/>
                        <mxPoint x="474" y="262.5" as="targetPoint"/>
                        <Array as="points">
                            <mxPoint x="364" y="222.5"/>
                            <mxPoint x="474" y="222.5"/>
                        </Array>
                    </mxGeometry>
                </mxCell>
                <mxCell id="16" value="S3 SILVER" style="outlineConnect=0;fontColor=#232F3E;gradientColor=none;strokeColor=#ffffff;fillColor=#232F3E;dashed=0;verticalLabelPosition=middle;verticalAlign=bottom;align=center;html=1;whiteSpace=wrap;fontSize=10;fontStyle=1;spacing=3;shape=mxgraph.aws4.productIcon;prIcon=mxgraph.aws4.s3;rounded=0;" vertex="1" parent="4">
                    <mxGeometry x="420" y="430" width="80" height="100" as="geometry"/>
                </mxCell>
                <mxCell id="17" value="" style="edgeStyle=orthogonalEdgeStyle;html=1;endArrow=block;elbow=vertical;startArrow=none;endFill=1;strokeColor=#2D7600;rounded=0;fillColor=#60a917;" edge="1" parent="4" target="16">
                    <mxGeometry width="100" relative="1" as="geometry">
                        <mxPoint x="519" y="350" as="sourcePoint"/>
                        <mxPoint x="489" y="410" as="targetPoint"/>
                        <Array as="points">
                            <mxPoint x="519" y="380"/>
                            <mxPoint x="489" y="380"/>
                        </Array>
                    </mxGeometry>
                </mxCell>
                <mxCell id="18" value="Amazon EMR" style="outlineConnect=0;fontColor=#232F3E;gradientColor=none;strokeColor=#ffffff;fillColor=#232F3E;dashed=0;verticalLabelPosition=middle;verticalAlign=bottom;align=center;html=1;whiteSpace=wrap;fontSize=10;fontStyle=1;spacing=3;shape=mxgraph.aws4.productIcon;prIcon=mxgraph.aws4.emr;rounded=0;" vertex="1" parent="4">
                    <mxGeometry x="664" y="267.5" width="80" height="100" as="geometry"/>
                </mxCell>
                <mxCell id="19" value="AWS Lambda" style="outlineConnect=0;fontColor=#232F3E;gradientColor=none;strokeColor=#ffffff;fillColor=#232F3E;dashed=0;verticalLabelPosition=middle;verticalAlign=bottom;align=center;html=1;whiteSpace=wrap;fontSize=10;fontStyle=1;spacing=3;shape=mxgraph.aws4.productIcon;prIcon=mxgraph.aws4.lambda;rounded=0;" vertex="1" parent="4">
                    <mxGeometry x="554" y="267.5" width="80" height="100" as="geometry"/>
                </mxCell>
                <mxCell id="20" value="" style="edgeStyle=orthogonalEdgeStyle;html=1;endArrow=block;elbow=vertical;startArrow=none;endFill=1;strokeColor=#2D7600;rounded=0;fillColor=#60a917;" edge="1" parent="4" target="19" source="16">
                    <mxGeometry width="100" relative="1" as="geometry">
                        <mxPoint x="534" y="465" as="sourcePoint"/>
                        <mxPoint x="624" y="325" as="targetPoint"/>
                        <Array as="points">
                            <mxPoint x="600" y="465"/>
                        </Array>
                    </mxGeometry>
                </mxCell>
                <mxCell id="21" value="" style="edgeStyle=orthogonalEdgeStyle;html=1;endArrow=block;elbow=vertical;startArrow=none;endFill=1;strokeColor=#2D7600;rounded=0;fillColor=#60a917;" edge="1" parent="4">
                    <mxGeometry width="100" relative="1" as="geometry">
                        <mxPoint x="594" y="267.5" as="sourcePoint"/>
                        <mxPoint x="704" y="267.5" as="targetPoint"/>
                        <Array as="points">
                            <mxPoint x="594" y="227.5"/>
                            <mxPoint x="704" y="227.5"/>
                        </Array>
                    </mxGeometry>
                </mxCell>
                <mxCell id="22" value="S3 GOLD" style="outlineConnect=0;fontColor=#232F3E;gradientColor=none;strokeColor=#ffffff;fillColor=#232F3E;dashed=0;verticalLabelPosition=middle;verticalAlign=bottom;align=center;html=1;whiteSpace=wrap;fontSize=10;fontStyle=1;spacing=3;shape=mxgraph.aws4.productIcon;prIcon=mxgraph.aws4.s3;rounded=0;" vertex="1" parent="4">
                    <mxGeometry x="634" y="470" width="80" height="100" as="geometry"/>
                </mxCell>
                <mxCell id="23" value="" style="edgeStyle=orthogonalEdgeStyle;html=1;endArrow=block;elbow=vertical;startArrow=none;endFill=1;strokeColor=#2D7600;rounded=0;fillColor=#60a917;" edge="1" parent="4" target="22">
                    <mxGeometry width="100" relative="1" as="geometry">
                        <mxPoint x="749" y="355" as="sourcePoint"/>
                        <mxPoint x="689" y="275" as="targetPoint"/>
                        <Array as="points">
                            <mxPoint x="749" y="385"/>
                            <mxPoint x="719" y="385"/>
                            <mxPoint x="719" y="430"/>
                            <mxPoint x="674" y="430"/>
                        </Array>
                    </mxGeometry>
                </mxCell>
                <mxCell id="25" value="AWS Glue" style="outlineConnect=0;fontColor=#232F3E;gradientColor=none;strokeColor=#ffffff;fillColor=#232F3E;dashed=0;verticalLabelPosition=middle;verticalAlign=bottom;align=center;html=1;whiteSpace=wrap;fontSize=10;fontStyle=1;spacing=3;shape=mxgraph.aws4.productIcon;prIcon=mxgraph.aws4.glue;rounded=0;" vertex="1" parent="4">
                    <mxGeometry x="140" y="585" width="80" height="100" as="geometry"/>
                </mxCell>
                <mxCell id="26" value="Data Ingestion" style="fillColor=none;strokeColor=#FFFFFF;dashed=1;verticalAlign=top;fontStyle=0;fontColor=#FFFFFF;rounded=0;" vertex="1" parent="4">
                    <mxGeometry x="110" y="552.5" width="320" height="145" as="geometry"/>
                </mxCell>
                <mxCell id="27" value="" style="edgeStyle=orthogonalEdgeStyle;html=1;endArrow=block;elbow=vertical;startArrow=none;endFill=1;strokeColor=#2D7600;rounded=0;fillColor=#60a917;exitX=0;exitY=0.5;exitDx=0;exitDy=0;" edge="1" parent="4" source="26" target="6">
                    <mxGeometry width="100" relative="1" as="geometry">
                        <mxPoint x="105" y="677.5" as="sourcePoint"/>
                        <mxPoint x="10" y="532.5" as="targetPoint"/>
                        <Array as="points">
                            <mxPoint x="80" y="625"/>
                        </Array>
                    </mxGeometry>
                </mxCell>
                <mxCell id="100" value="" style="whiteSpace=wrap;html=1;fontSize=16;fillColor=none;" vertex="1" parent="4">
                    <mxGeometry x="37" y="400" width="750" height="310" as="geometry"/>
                </mxCell>
                <mxCell id="101" value="&lt;span style=&quot;font-size: 16px;&quot;&gt;DATA LAKE&lt;/span&gt;" style="text;strokeColor=none;align=center;fillColor=none;html=1;verticalAlign=middle;whiteSpace=wrap;rounded=0;" vertex="1" parent="4">
                    <mxGeometry x="654" y="667.5" width="110" height="30" as="geometry"/>
                </mxCell>
                <mxCell id="103" value="" style="outlineConnect=0;dashed=0;verticalLabelPosition=bottom;verticalAlign=top;align=center;html=1;shape=mxgraph.aws3.redshift;fillColor=#2E73B8;gradientColor=none;fontSize=16;" vertex="1" parent="4">
                    <mxGeometry x="890" y="552.5" width="90" height="100" as="geometry"/>
                </mxCell>
                <mxCell id="104" value="&lt;span style=&quot;font-size: 16px;&quot;&gt;CLOUD ENVIROMENT&lt;/span&gt;" style="text;strokeColor=none;align=center;fillColor=none;html=1;verticalAlign=middle;whiteSpace=wrap;rounded=0;" vertex="1" parent="4">
                    <mxGeometry x="1230" y="697.5" width="110" height="30" as="geometry"/>
                </mxCell>
                <mxCell id="105" value="&lt;span style=&quot;font-size: 16px;&quot;&gt;Red Shift&amp;nbsp;&lt;br&gt;(bd relacional)&lt;br&gt;&lt;/span&gt;" style="text;strokeColor=none;align=center;fillColor=none;html=1;verticalAlign=middle;whiteSpace=wrap;rounded=0;" vertex="1" parent="4">
                    <mxGeometry x="880" y="667.5" width="110" height="30" as="geometry"/>
                </mxCell>
                <mxCell id="108" value="" style="outlineConnect=0;dashed=0;verticalLabelPosition=bottom;verticalAlign=top;align=center;html=1;shape=mxgraph.aws3.users;fillColor=#D2D3D3;gradientColor=none;fontSize=16;" vertex="1" parent="4">
                    <mxGeometry x="1150" y="560" width="66" height="63" as="geometry"/>
                </mxCell>
                <mxCell id="111" value="" style="sketch=0;points=[[0,0,0],[0.25,0,0],[0.5,0,0],[0.75,0,0],[1,0,0],[0,1,0],[0.25,1,0],[0.5,1,0],[0.75,1,0],[1,1,0],[0,0.25,0],[0,0.5,0],[0,0.75,0],[1,0.25,0],[1,0.5,0],[1,0.75,0]];outlineConnect=0;fontColor=#232F3E;gradientColor=#4D72F3;gradientDirection=north;fillColor=#3334B9;strokeColor=#ffffff;dashed=0;verticalLabelPosition=bottom;verticalAlign=top;align=center;html=1;fontSize=12;fontStyle=0;aspect=fixed;shape=mxgraph.aws4.resourceIcon;resIcon=mxgraph.aws4.database;" vertex="1" parent="4">
                    <mxGeometry x="896" y="380" width="78" height="78" as="geometry"/>
                </mxCell>
                <mxCell id="112" value="" style="edgeStyle=orthogonalEdgeStyle;html=1;endArrow=block;elbow=vertical;startArrow=none;endFill=1;strokeColor=#2D7600;rounded=0;fillColor=#60a917;" edge="1" parent="4" source="22" target="111">
                    <mxGeometry width="100" relative="1" as="geometry">
                        <mxPoint x="719.9999999999998" y="517.5" as="sourcePoint"/>
                        <mxPoint x="820.0000000000002" y="420" as="targetPoint"/>
                        <Array as="points">
                            <mxPoint x="820" y="518"/>
                            <mxPoint x="820" y="419"/>
                        </Array>
                    </mxGeometry>
                </mxCell>
                <mxCell id="114" value="" style="edgeStyle=orthogonalEdgeStyle;html=1;endArrow=block;elbow=vertical;startArrow=none;endFill=1;strokeColor=#2D7600;rounded=0;fillColor=#60a917;" edge="1" parent="4" source="22" target="103">
                    <mxGeometry width="100" relative="1" as="geometry">
                        <mxPoint x="729.9999999999998" y="527.5" as="sourcePoint"/>
                        <mxPoint x="906" y="429" as="targetPoint"/>
                        <Array as="points">
                            <mxPoint x="830" y="528"/>
                            <mxPoint x="830" y="590"/>
                        </Array>
                    </mxGeometry>
                </mxCell>
                <mxCell id="116" value="&lt;span style=&quot;font-size: 16px;&quot;&gt;Book de variaveis Preditivas&lt;br&gt;&lt;/span&gt;" style="text;strokeColor=none;align=center;fillColor=none;html=1;verticalAlign=middle;whiteSpace=wrap;rounded=0;" vertex="1" parent="4">
                    <mxGeometry x="880" y="470" width="110" height="30" as="geometry"/>
                </mxCell>
                <mxCell id="118" value="Amazon Glacier" style="sketch=0;outlineConnect=0;fontColor=#232F3E;gradientColor=none;strokeColor=#ffffff;fillColor=#232F3E;dashed=0;verticalLabelPosition=middle;verticalAlign=bottom;align=center;html=1;whiteSpace=wrap;fontSize=10;fontStyle=1;spacing=3;shape=mxgraph.aws4.productIcon;prIcon=mxgraph.aws4.glacier;" vertex="1" parent="4">
                    <mxGeometry x="320" y="570" width="80" height="110" as="geometry"/>
                </mxCell>
                <mxCell id="28" value="Corporate data center" style="points=[[0,0],[0.25,0],[0.5,0],[0.75,0],[1,0],[1,0.25],[1,0.5],[1,0.75],[1,1],[0.75,1],[0.5,1],[0.25,1],[0,1],[0,0.75],[0,0.5],[0,0.25]];outlineConnect=0;gradientColor=none;html=1;whiteSpace=wrap;fontSize=12;fontStyle=0;container=1;pointerEvents=0;collapsible=0;recursiveResize=0;shape=mxgraph.aws4.group;grIcon=mxgraph.aws4.group_corporate_data_center;strokeColor=#FFFFFF;fillColor=none;verticalAlign=top;align=left;spacingLeft=30;fontColor=#FFFFFF;dashed=0;rounded=0;" vertex="1" parent="1">
                    <mxGeometry x="30" y="585" width="650" height="220" as="geometry"/>
                </mxCell>
                <mxCell id="29" value="" style="points=[[0,0,0],[0.25,0,0],[0.5,0,0],[0.75,0,0],[1,0,0],[0,1,0],[0.25,1,0],[0.5,1,0],[0.75,1,0],[1,1,0],[0,0.25,0],[0,0.5,0],[0,0.75,0],[1,0.25,0],[1,0.5,0],[1,0.75,0]];outlineConnect=0;fontColor=#232F3E;gradientColor=#4D72F3;gradientDirection=north;fillColor=#3334B9;strokeColor=#ffffff;dashed=0;verticalLabelPosition=bottom;verticalAlign=top;align=center;html=1;fontSize=12;fontStyle=0;aspect=fixed;shape=mxgraph.aws4.resourceIcon;resIcon=mxgraph.aws4.database;rounded=0;" vertex="1" parent="28">
                    <mxGeometry x="40" y="65" width="78" height="78" as="geometry"/>
                </mxCell>
                <mxCell id="30" value="" style="points=[[0,0,0],[0.25,0,0],[0.5,0,0],[0.75,0,0],[1,0,0],[0,1,0],[0.25,1,0],[0.5,1,0],[0.75,1,0],[1,1,0],[0,0.25,0],[0,0.5,0],[0,0.75,0],[1,0.25,0],[1,0.5,0],[1,0.75,0]];outlineConnect=0;fontColor=#232F3E;gradientColor=#4D72F3;gradientDirection=north;fillColor=#3334B9;strokeColor=#ffffff;dashed=0;verticalLabelPosition=bottom;verticalAlign=top;align=center;html=1;fontSize=12;fontStyle=0;aspect=fixed;shape=mxgraph.aws4.resourceIcon;resIcon=mxgraph.aws4.database;rounded=0;" vertex="1" parent="28">
                    <mxGeometry x="160" y="65" width="78" height="78" as="geometry"/>
                </mxCell>
                <mxCell id="31" value="" style="points=[[0,0,0],[0.25,0,0],[0.5,0,0],[0.75,0,0],[1,0,0],[0,1,0],[0.25,1,0],[0.5,1,0],[0.75,1,0],[1,1,0],[0,0.25,0],[0,0.5,0],[0,0.75,0],[1,0.25,0],[1,0.5,0],[1,0.75,0]];outlineConnect=0;fontColor=#232F3E;gradientColor=#4D72F3;gradientDirection=north;fillColor=#3334B9;strokeColor=#ffffff;dashed=0;verticalLabelPosition=bottom;verticalAlign=top;align=center;html=1;fontSize=12;fontStyle=0;aspect=fixed;shape=mxgraph.aws4.resourceIcon;resIcon=mxgraph.aws4.database;rounded=0;" vertex="1" parent="28">
                    <mxGeometry x="280" y="65" width="78" height="78" as="geometry"/>
                </mxCell>
                <mxCell id="32" value="" style="points=[[0,0,0],[0.25,0,0],[0.5,0,0],[0.75,0,0],[1,0,0],[0,1,0],[0.25,1,0],[0.5,1,0],[0.75,1,0],[1,1,0],[0,0.25,0],[0,0.5,0],[0,0.75,0],[1,0.25,0],[1,0.5,0],[1,0.75,0]];outlineConnect=0;fontColor=#232F3E;gradientColor=#4D72F3;gradientDirection=north;fillColor=#3334B9;strokeColor=#ffffff;dashed=0;verticalLabelPosition=bottom;verticalAlign=top;align=center;html=1;fontSize=12;fontStyle=0;aspect=fixed;shape=mxgraph.aws4.resourceIcon;resIcon=mxgraph.aws4.database;rounded=0;" vertex="1" parent="28">
                    <mxGeometry x="400" y="65" width="78" height="78" as="geometry"/>
                </mxCell>
                <mxCell id="33" value="" style="points=[[0,0,0],[0.25,0,0],[0.5,0,0],[0.75,0,0],[1,0,0],[0,1,0],[0.25,1,0],[0.5,1,0],[0.75,1,0],[1,1,0],[0,0.25,0],[0,0.5,0],[0,0.75,0],[1,0.25,0],[1,0.5,0],[1,0.75,0]];outlineConnect=0;fontColor=#232F3E;gradientColor=#4D72F3;gradientDirection=north;fillColor=#3334B9;strokeColor=#ffffff;dashed=0;verticalLabelPosition=bottom;verticalAlign=top;align=center;html=1;fontSize=12;fontStyle=0;aspect=fixed;shape=mxgraph.aws4.resourceIcon;resIcon=mxgraph.aws4.database;rounded=0;" vertex="1" parent="28">
                    <mxGeometry x="516" y="65" width="78" height="78" as="geometry"/>
                </mxCell>
                <mxCell id="36" value="&lt;font style=&quot;font-size: 16px;&quot;&gt;DM&lt;/font&gt;" style="text;strokeColor=none;align=center;fillColor=none;html=1;verticalAlign=middle;whiteSpace=wrap;rounded=0;" vertex="1" parent="28">
                    <mxGeometry x="54" y="155" width="50" height="30" as="geometry"/>
                </mxCell>
                <mxCell id="37" value="&lt;font style=&quot;font-size: 16px;&quot;&gt;CREDZ&lt;/font&gt;" style="text;strokeColor=none;align=center;fillColor=none;html=1;verticalAlign=middle;whiteSpace=wrap;rounded=0;" vertex="1" parent="28">
                    <mxGeometry x="174" y="155" width="50" height="30" as="geometry"/>
                </mxCell>
                <mxCell id="38" value="&lt;font style=&quot;font-size: 16px;&quot;&gt;FORT BRASIL&lt;/font&gt;" style="text;strokeColor=none;align=center;fillColor=none;html=1;verticalAlign=middle;whiteSpace=wrap;rounded=0;" vertex="1" parent="28">
                    <mxGeometry x="294" y="155" width="50" height="30" as="geometry"/>
                </mxCell>
                <mxCell id="39" value="&lt;font style=&quot;font-size: 16px;&quot;&gt;TRIGG&lt;/font&gt;" style="text;strokeColor=none;align=center;fillColor=none;html=1;verticalAlign=middle;whiteSpace=wrap;rounded=0;" vertex="1" parent="28">
                    <mxGeometry x="414" y="155" width="50" height="30" as="geometry"/>
                </mxCell>
                <mxCell id="40" value="&lt;font style=&quot;font-size: 16px;&quot;&gt;UZE&lt;/font&gt;" style="text;strokeColor=none;align=center;fillColor=none;html=1;verticalAlign=middle;whiteSpace=wrap;rounded=0;" vertex="1" parent="28">
                    <mxGeometry x="530" y="155" width="50" height="30" as="geometry"/>
                </mxCell>
                <mxCell id="58" value="" style="edgeStyle=orthogonalEdgeStyle;html=1;endArrow=block;elbow=vertical;startArrow=none;endFill=1;strokeColor=#2D7600;rounded=0;fillColor=#60a917;exitX=0.5;exitY=0;exitDx=0;exitDy=0;exitPerimeter=0;" edge="1" parent="28" source="31">
                    <mxGeometry width="100" relative="1" as="geometry">
                        <mxPoint x="319.98" y="57.5" as="sourcePoint"/>
                        <mxPoint x="190" y="-105" as="targetPoint"/>
                    </mxGeometry>
                </mxCell>
                <mxCell id="83" value="" style="edgeStyle=orthogonalEdgeStyle;html=1;endArrow=block;elbow=vertical;startArrow=none;endFill=1;strokeColor=#2D7600;rounded=0;fillColor=#60a917;" edge="1" parent="28">
                    <mxGeometry width="100" relative="1" as="geometry">
                        <mxPoint x="440" y="65" as="sourcePoint"/>
                        <mxPoint x="190" y="-95" as="targetPoint"/>
                        <Array as="points">
                            <mxPoint x="436" y="65"/>
                            <mxPoint x="436" y="-35"/>
                            <mxPoint x="190" y="-35"/>
                        </Array>
                    </mxGeometry>
                </mxCell>
                <mxCell id="84" value="" style="edgeStyle=orthogonalEdgeStyle;html=1;endArrow=block;elbow=vertical;startArrow=none;endFill=1;strokeColor=#2D7600;rounded=0;fillColor=#60a917;" edge="1" parent="28">
                    <mxGeometry width="100" relative="1" as="geometry">
                        <mxPoint x="557.01" y="65" as="sourcePoint"/>
                        <mxPoint x="190" y="-95" as="targetPoint"/>
                        <Array as="points">
                            <mxPoint x="553" y="65"/>
                            <mxPoint x="553" y="-75"/>
                            <mxPoint x="190" y="-75"/>
                        </Array>
                    </mxGeometry>
                </mxCell>
                <mxCell id="34" value="" style="edgeStyle=orthogonalEdgeStyle;html=1;endArrow=block;elbow=vertical;startArrow=none;endFill=1;strokeColor=#2D7600;rounded=0;fillColor=#60a917;exitX=0.5;exitY=0;exitDx=0;exitDy=0;exitPerimeter=0;" edge="1" parent="1" source="29">
                    <mxGeometry width="100" relative="1" as="geometry">
                        <mxPoint x="495" y="655" as="sourcePoint"/>
                        <mxPoint x="220" y="480" as="targetPoint"/>
                        <Array as="points">
                            <mxPoint x="109" y="655"/>
                            <mxPoint x="110" y="655"/>
                            <mxPoint x="110" y="620"/>
                            <mxPoint x="190" y="620"/>
                            <mxPoint x="190" y="570"/>
                            <mxPoint x="220" y="570"/>
                        </Array>
                    </mxGeometry>
                </mxCell>
                <mxCell id="56" value="" style="whiteSpace=wrap;html=1;fontSize=16;fillColor=none;" vertex="1" parent="1">
                    <mxGeometry x="737" y="585" width="263" height="225" as="geometry"/>
                </mxCell>
                <mxCell id="41" value="" style="points=[[0,0,0],[0.25,0,0],[0.5,0,0],[0.75,0,0],[1,0,0],[0,1,0],[0.25,1,0],[0.5,1,0],[0.75,1,0],[1,1,0],[0,0.25,0],[0,0.5,0],[0,0.75,0],[1,0.25,0],[1,0.5,0],[1,0.75,0]];outlineConnect=0;fontColor=#232F3E;gradientColor=#4D72F3;gradientDirection=north;fillColor=#3334B9;strokeColor=#ffffff;dashed=0;verticalLabelPosition=bottom;verticalAlign=top;align=center;html=1;fontSize=12;fontStyle=0;aspect=fixed;shape=mxgraph.aws4.resourceIcon;resIcon=mxgraph.aws4.database;rounded=0;" vertex="1" parent="1">
                    <mxGeometry x="840" y="630" width="78" height="78" as="geometry"/>
                </mxCell>
                <mxCell id="42" value="&lt;font style=&quot;font-size: 16px;&quot;&gt;EXTERNAL DATA IF NEEDED&lt;/font&gt;" style="text;strokeColor=none;align=center;fillColor=none;html=1;verticalAlign=middle;whiteSpace=wrap;rounded=0;" vertex="1" parent="1">
                    <mxGeometry x="854" y="740" width="50" height="30" as="geometry"/>
                </mxCell>
                <mxCell id="57" value="" style="edgeStyle=orthogonalEdgeStyle;html=1;endArrow=block;elbow=vertical;startArrow=none;endFill=1;strokeColor=#2D7600;rounded=0;fillColor=#60a917;exitX=0.5;exitY=0;exitDx=0;exitDy=0;exitPerimeter=0;entryX=0.5;entryY=1;entryDx=0;entryDy=0;" edge="1" parent="1" source="30" target="26">
                    <mxGeometry width="100" relative="1" as="geometry">
                        <mxPoint x="119" y="660" as="sourcePoint"/>
                        <mxPoint x="230" y="487.5" as="targetPoint"/>
                    </mxGeometry>
                </mxCell>
                <mxCell id="99" value="" style="edgeStyle=orthogonalEdgeStyle;html=1;endArrow=block;elbow=vertical;startArrow=none;endFill=1;strokeColor=#2D7600;rounded=0;fillColor=#60a917;exitX=0.25;exitY=0;exitDx=0;exitDy=0;exitPerimeter=0;entryX=0.226;entryY=1.02;entryDx=0;entryDy=0;entryPerimeter=0;" edge="1" parent="1" source="41" target="26">
                    <mxGeometry width="100" relative="1" as="geometry">
                        <mxPoint x="687.01" y="650" as="sourcePoint"/>
                        <mxPoint x="220" y="490" as="targetPoint"/>
                        <Array as="points">
                            <mxPoint x="860" y="520"/>
                            <mxPoint x="220" y="520"/>
                            <mxPoint x="220" y="480"/>
                        </Array>
                    </mxGeometry>
                </mxCell>
                <mxCell id="107" value="" style="outlineConnect=0;dashed=0;verticalLabelPosition=bottom;verticalAlign=top;align=center;html=1;shape=mxgraph.aws3.ec2;fillColor=#F58534;gradientColor=none;fontSize=16;" vertex="1" parent="1">
                    <mxGeometry x="300" y="-420" width="76.5" height="93" as="geometry"/>
                </mxCell>
                <mxCell id="24" value="AWS Glue" style="outlineConnect=0;fontColor=#232F3E;gradientColor=none;strokeColor=#ffffff;fillColor=#232F3E;dashed=0;verticalLabelPosition=middle;verticalAlign=bottom;align=center;html=1;whiteSpace=wrap;fontSize=10;fontStyle=1;spacing=3;shape=mxgraph.aws4.productIcon;prIcon=mxgraph.aws4.glue;rounded=0;" vertex="1" parent="1">
                    <mxGeometry x="604" y="-410" width="80" height="100" as="geometry"/>
                </mxCell>
            </root>
        </mxGraphModel>
    </diagram>
</mxfile>